<svg width="160" height="50" viewBox="0 0 160 50" fill="none" xmlns="http://www.w3.org/2000/svg">
<rect width="160" height="50" fill="#C8B47E"/>
<path d="M50.9033 31H48.7773L48.791 29.6396H50.9033C51.5186 29.6396 52.0335 29.5052 52.4482 29.2363C52.8675 28.9674 53.182 28.5824 53.3916 28.0811C53.6058 27.5798 53.7129 26.9827 53.7129 26.29V25.75C53.7129 25.2122 53.6514 24.736 53.5283 24.3213C53.4098 23.9066 53.2321 23.5579 52.9951 23.2754C52.7627 22.9928 52.4756 22.7786 52.1338 22.6328C51.7965 22.487 51.4069 22.4141 50.9648 22.4141H48.7363V21.0469H50.9648C51.6257 21.0469 52.2295 21.1585 52.7764 21.3818C53.3232 21.6006 53.7949 21.9173 54.1914 22.332C54.5924 22.7467 54.9001 23.2435 55.1143 23.8223C55.3285 24.401 55.4355 25.0482 55.4355 25.7637V26.29C55.4355 27.0055 55.3285 27.6527 55.1143 28.2314C54.9001 28.8102 54.5924 29.307 54.1914 29.7217C53.7904 30.1318 53.3118 30.4486 52.7559 30.6719C52.2044 30.8906 51.5869 31 50.9033 31ZM49.7275 21.0469V31H48.0117V21.0469H49.7275ZM56.6797 27.3838V27.2266C56.6797 26.6934 56.7572 26.1989 56.9121 25.7432C57.0671 25.2829 57.2904 24.8841 57.582 24.5469C57.8783 24.2051 58.2383 23.9408 58.6621 23.7539C59.0905 23.5625 59.5736 23.4668 60.1113 23.4668C60.6536 23.4668 61.1367 23.5625 61.5605 23.7539C61.9889 23.9408 62.3512 24.2051 62.6475 24.5469C62.9437 24.8841 63.1693 25.2829 63.3242 25.7432C63.4792 26.1989 63.5566 26.6934 63.5566 27.2266V27.3838C63.5566 27.917 63.4792 28.4115 63.3242 28.8672C63.1693 29.3229 62.9437 29.7217 62.6475 30.0635C62.3512 30.4007 61.9912 30.665 61.5674 30.8564C61.1436 31.0433 60.6628 31.1367 60.125 31.1367C59.5827 31.1367 59.0973 31.0433 58.6689 30.8564C58.2451 30.665 57.8851 30.4007 57.5889 30.0635C57.2926 29.7217 57.0671 29.3229 56.9121 28.8672C56.7572 28.4115 56.6797 27.917 56.6797 27.3838ZM58.3271 27.2266V27.3838C58.3271 27.7165 58.3613 28.0309 58.4297 28.3271C58.498 28.6234 58.6051 28.8831 58.751 29.1064C58.8968 29.3298 59.0837 29.5052 59.3115 29.6328C59.5394 29.7604 59.8105 29.8242 60.125 29.8242C60.4303 29.8242 60.6947 29.7604 60.918 29.6328C61.1458 29.5052 61.3327 29.3298 61.4785 29.1064C61.6243 28.8831 61.7314 28.6234 61.7998 28.3271C61.8727 28.0309 61.9092 27.7165 61.9092 27.3838V27.2266C61.9092 26.8984 61.8727 26.5885 61.7998 26.2969C61.7314 26.0007 61.6221 25.7386 61.4717 25.5107C61.3258 25.2829 61.139 25.1051 60.9111 24.9775C60.6878 24.8454 60.4212 24.7793 60.1113 24.7793C59.8014 24.7793 59.5326 24.8454 59.3047 24.9775C59.0814 25.1051 58.8968 25.2829 58.751 25.5107C58.6051 25.7386 58.498 26.0007 58.4297 26.2969C58.3613 26.5885 58.3271 26.8984 58.3271 27.2266ZM66.9473 29.3594L68.6562 23.6035H69.709L69.4219 25.3262L67.6992 31H66.7559L66.9473 29.3594ZM65.9424 23.6035L67.2754 29.3867L67.3848 31H66.332L64.3291 23.6035H65.9424ZM71.3086 29.3184L72.6006 23.6035H74.207L72.2109 31H71.1582L71.3086 29.3184ZM69.8867 23.6035L71.5752 29.291L71.7871 31H70.8438L69.1006 25.3193L68.8135 23.6035H69.8867ZM76.9619 25.1826V31H75.3145V23.6035H76.8662L76.9619 25.1826ZM76.668 27.0283L76.1348 27.0215C76.1393 26.4974 76.2122 26.0166 76.3535 25.5791C76.4993 25.1416 76.6999 24.7656 76.9551 24.4512C77.2148 24.1367 77.5247 23.8952 77.8848 23.7266C78.2448 23.5534 78.6458 23.4668 79.0879 23.4668C79.4434 23.4668 79.7646 23.5169 80.0518 23.6172C80.3434 23.7129 80.5918 23.8701 80.7969 24.0889C81.0065 24.3076 81.166 24.5924 81.2754 24.9434C81.3848 25.2897 81.4395 25.7158 81.4395 26.2217V31H79.7852V26.2148C79.7852 25.8594 79.7327 25.5791 79.6279 25.374C79.5277 25.1644 79.3796 25.0163 79.1836 24.9297C78.9922 24.8385 78.7529 24.793 78.4658 24.793C78.1833 24.793 77.9303 24.8522 77.707 24.9707C77.4837 25.0892 77.2946 25.251 77.1396 25.4561C76.9893 25.6611 76.873 25.8981 76.791 26.167C76.709 26.4359 76.668 26.723 76.668 27.0283ZM84.8848 20.5V31H83.2305V20.5H84.8848ZM86.375 27.3838V27.2266C86.375 26.6934 86.4525 26.1989 86.6074 25.7432C86.7624 25.2829 86.9857 24.8841 87.2773 24.5469C87.5736 24.2051 87.9336 23.9408 88.3574 23.7539C88.7858 23.5625 89.2689 23.4668 89.8066 23.4668C90.349 23.4668 90.832 23.5625 91.2559 23.7539C91.6842 23.9408 92.0465 24.2051 92.3428 24.5469C92.639 24.8841 92.8646 25.2829 93.0195 25.7432C93.1745 26.1989 93.252 26.6934 93.252 27.2266V27.3838C93.252 27.917 93.1745 28.4115 93.0195 28.8672C92.8646 29.3229 92.639 29.7217 92.3428 30.0635C92.0465 30.4007 91.6865 30.665 91.2627 30.8564C90.8389 31.0433 90.3581 31.1367 89.8203 31.1367C89.278 31.1367 88.7926 31.0433 88.3643 30.8564C87.9404 30.665 87.5804 30.4007 87.2842 30.0635C86.988 29.7217 86.7624 29.3229 86.6074 28.8672C86.4525 28.4115 86.375 27.917 86.375 27.3838ZM88.0225 27.2266V27.3838C88.0225 27.7165 88.0566 28.0309 88.125 28.3271C88.1934 28.6234 88.3005 28.8831 88.4463 29.1064C88.5921 29.3298 88.779 29.5052 89.0068 29.6328C89.2347 29.7604 89.5059 29.8242 89.8203 29.8242C90.1257 29.8242 90.39 29.7604 90.6133 29.6328C90.8411 29.5052 91.028 29.3298 91.1738 29.1064C91.3197 28.8831 91.4268 28.6234 91.4951 28.3271C91.568 28.0309 91.6045 27.7165 91.6045 27.3838V27.2266C91.6045 26.8984 91.568 26.5885 91.4951 26.2969C91.4268 26.0007 91.3174 25.7386 91.167 25.5107C91.0212 25.2829 90.8343 25.1051 90.6064 24.9775C90.3831 24.8454 90.1165 24.7793 89.8066 24.7793C89.4967 24.7793 89.2279 24.8454 89 24.9775C88.7767 25.1051 88.5921 25.2829 88.4463 25.5107C88.3005 25.7386 88.1934 26.0007 88.125 26.2969C88.0566 26.5885 88.0225 26.8984 88.0225 27.2266ZM98.8027 29.5166V25.9893C98.8027 25.7249 98.7549 25.4971 98.6592 25.3057C98.5635 25.1143 98.4176 24.9661 98.2217 24.8613C98.0303 24.7565 97.7887 24.7041 97.4971 24.7041C97.2282 24.7041 96.9958 24.7497 96.7998 24.8408C96.6038 24.932 96.4512 25.055 96.3418 25.21C96.2324 25.3649 96.1777 25.5404 96.1777 25.7363H94.5371C94.5371 25.4447 94.6077 25.1621 94.749 24.8887C94.8903 24.6152 95.0954 24.3714 95.3643 24.1572C95.6331 23.943 95.9544 23.7744 96.3281 23.6514C96.7018 23.5283 97.1211 23.4668 97.5859 23.4668C98.1419 23.4668 98.6341 23.5602 99.0625 23.7471C99.4954 23.9339 99.835 24.2165 100.081 24.5947C100.332 24.9684 100.457 25.4378 100.457 26.0029V29.291C100.457 29.6283 100.48 29.9313 100.525 30.2002C100.576 30.4645 100.646 30.6947 100.737 30.8906V31H99.0488C98.9714 30.8223 98.9098 30.5967 98.8643 30.3232C98.8232 30.0452 98.8027 29.7764 98.8027 29.5166ZM99.042 26.502L99.0557 27.5205H97.873C97.5677 27.5205 97.2988 27.5501 97.0664 27.6094C96.834 27.6641 96.6403 27.7461 96.4854 27.8555C96.3304 27.9648 96.2142 28.097 96.1367 28.252C96.0592 28.4069 96.0205 28.5824 96.0205 28.7783C96.0205 28.9743 96.0661 29.1543 96.1572 29.3184C96.2484 29.4779 96.3805 29.6032 96.5537 29.6943C96.7314 29.7855 96.9456 29.8311 97.1963 29.8311C97.5335 29.8311 97.8275 29.7627 98.0781 29.626C98.3333 29.4847 98.5339 29.3138 98.6797 29.1133C98.8255 28.9082 98.903 28.7145 98.9121 28.5322L99.4453 29.2637C99.3906 29.4505 99.2972 29.651 99.165 29.8652C99.0329 30.0794 98.8597 30.2845 98.6455 30.4805C98.4359 30.6719 98.1829 30.8291 97.8867 30.9521C97.5951 31.0752 97.2578 31.1367 96.875 31.1367C96.3919 31.1367 95.9613 31.041 95.583 30.8496C95.2048 30.6536 94.9085 30.3916 94.6943 30.0635C94.4801 29.7308 94.373 29.3548 94.373 28.9355C94.373 28.5436 94.446 28.1973 94.5918 27.8965C94.7422 27.5911 94.9609 27.3359 95.248 27.1309C95.5397 26.9258 95.8952 26.7708 96.3145 26.666C96.7337 26.5566 97.2122 26.502 97.75 26.502H99.042ZM106.691 29.4688V20.5H108.346V31H106.849L106.691 29.4688ZM101.879 27.3838V27.2402C101.879 26.6797 101.945 26.1693 102.077 25.709C102.209 25.2441 102.401 24.8454 102.651 24.5127C102.902 24.1755 103.207 23.918 103.567 23.7402C103.927 23.5579 104.333 23.4668 104.784 23.4668C105.231 23.4668 105.623 23.5534 105.96 23.7266C106.297 23.8997 106.584 24.1481 106.821 24.4717C107.058 24.7907 107.247 25.1735 107.389 25.6201C107.53 26.0622 107.63 26.5544 107.689 27.0967V27.5547C107.63 28.0833 107.53 28.5664 107.389 29.0039C107.247 29.4414 107.058 29.8197 106.821 30.1387C106.584 30.4577 106.295 30.7038 105.953 30.877C105.616 31.0501 105.222 31.1367 104.771 31.1367C104.324 31.1367 103.921 31.0433 103.561 30.8564C103.205 30.6696 102.902 30.4076 102.651 30.0703C102.401 29.7331 102.209 29.3366 102.077 28.8809C101.945 28.4206 101.879 27.9215 101.879 27.3838ZM103.526 27.2402V27.3838C103.526 27.721 103.556 28.0355 103.615 28.3271C103.679 28.6188 103.777 28.8763 103.909 29.0996C104.041 29.3184 104.212 29.4915 104.422 29.6191C104.636 29.7422 104.891 29.8037 105.188 29.8037C105.561 29.8037 105.869 29.7217 106.11 29.5576C106.352 29.3936 106.541 29.1725 106.678 28.8945C106.819 28.612 106.915 28.2975 106.965 27.9512V26.7139C106.938 26.445 106.881 26.1943 106.794 25.9619C106.712 25.7295 106.6 25.5267 106.459 25.3535C106.318 25.1758 106.142 25.0391 105.933 24.9434C105.728 24.8431 105.484 24.793 105.201 24.793C104.9 24.793 104.645 24.8568 104.436 24.9844C104.226 25.112 104.053 25.2874 103.916 25.5107C103.784 25.734 103.686 25.9938 103.622 26.29C103.558 26.5863 103.526 26.903 103.526 27.2402ZM115.318 23.6035V31H113.664V23.6035H115.318ZM113.555 21.6621C113.555 21.4115 113.637 21.2041 113.801 21.04C113.969 20.8714 114.202 20.7871 114.498 20.7871C114.79 20.7871 115.02 20.8714 115.188 21.04C115.357 21.2041 115.441 21.4115 115.441 21.6621C115.441 21.9082 115.357 22.1133 115.188 22.2773C115.02 22.4414 114.79 22.5234 114.498 22.5234C114.202 22.5234 113.969 22.4414 113.801 22.2773C113.637 22.1133 113.555 21.9082 113.555 21.6621ZM125.224 25.75V26.2969C125.224 27.0488 125.126 27.7233 124.93 28.3203C124.734 28.9173 124.453 29.4255 124.089 29.8447C123.729 30.264 123.296 30.5853 122.79 30.8086C122.284 31.0273 121.724 31.1367 121.108 31.1367C120.498 31.1367 119.939 31.0273 119.434 30.8086C118.932 30.5853 118.497 30.264 118.128 29.8447C117.759 29.4255 117.472 28.9173 117.267 28.3203C117.066 27.7233 116.966 27.0488 116.966 26.2969V25.75C116.966 24.998 117.066 24.3258 117.267 23.7334C117.467 23.1364 117.75 22.6283 118.114 22.209C118.483 21.7852 118.919 21.4639 119.42 21.2451C119.926 21.0218 120.484 20.9102 121.095 20.9102C121.71 20.9102 122.271 21.0218 122.776 21.2451C123.282 21.4639 123.717 21.7852 124.082 22.209C124.447 22.6283 124.727 23.1364 124.923 23.7334C125.123 24.3258 125.224 24.998 125.224 25.75ZM123.508 26.2969V25.7363C123.508 25.1803 123.453 24.6904 123.344 24.2666C123.239 23.8382 123.082 23.4805 122.872 23.1934C122.667 22.9017 122.414 22.6829 122.113 22.5371C121.812 22.3867 121.473 22.3115 121.095 22.3115C120.716 22.3115 120.379 22.3867 120.083 22.5371C119.787 22.6829 119.534 22.9017 119.324 23.1934C119.119 23.4805 118.962 23.8382 118.853 24.2666C118.743 24.6904 118.688 25.1803 118.688 25.7363V26.2969C118.688 26.8529 118.743 27.3451 118.853 27.7734C118.962 28.2018 119.121 28.5641 119.331 28.8604C119.545 29.152 119.8 29.373 120.097 29.5234C120.393 29.6693 120.73 29.7422 121.108 29.7422C121.491 29.7422 121.831 29.6693 122.127 29.5234C122.423 29.373 122.674 29.152 122.879 28.8604C123.084 28.5641 123.239 28.2018 123.344 27.7734C123.453 27.3451 123.508 26.8529 123.508 26.2969ZM132.176 28.4365C132.176 28.2314 132.144 28.0492 132.08 27.8896C132.021 27.7301 131.914 27.5843 131.759 27.4521C131.604 27.32 131.385 27.1924 131.103 27.0693C130.825 26.9417 130.469 26.8118 130.036 26.6797C129.562 26.5339 129.125 26.3721 128.724 26.1943C128.327 26.012 127.981 25.8024 127.685 25.5654C127.388 25.3239 127.158 25.0482 126.994 24.7383C126.83 24.4238 126.748 24.0615 126.748 23.6514C126.748 23.2458 126.832 22.8766 127.001 22.5439C127.174 22.2113 127.418 21.9242 127.732 21.6826C128.051 21.4365 128.427 21.2474 128.86 21.1152C129.293 20.9785 129.772 20.9102 130.296 20.9102C131.034 20.9102 131.67 21.0469 132.203 21.3203C132.741 21.5938 133.153 21.9606 133.44 22.4209C133.732 22.8812 133.878 23.3893 133.878 23.9453H132.176C132.176 23.6172 132.105 23.3278 131.964 23.0771C131.827 22.8219 131.618 22.6214 131.335 22.4756C131.057 22.3298 130.704 22.2568 130.275 22.2568C129.87 22.2568 129.533 22.3184 129.264 22.4414C128.995 22.5645 128.794 22.7308 128.662 22.9404C128.53 23.1501 128.464 23.387 128.464 23.6514C128.464 23.8382 128.507 24.0091 128.594 24.1641C128.68 24.3145 128.812 24.4557 128.99 24.5879C129.168 24.7155 129.391 24.8363 129.66 24.9502C129.929 25.0641 130.246 25.1735 130.61 25.2783C131.162 25.4424 131.643 25.6247 132.053 25.8252C132.463 26.0212 132.805 26.2445 133.078 26.4951C133.352 26.7458 133.557 27.0306 133.693 27.3496C133.83 27.6641 133.898 28.0218 133.898 28.4229C133.898 28.8421 133.814 29.2204 133.646 29.5576C133.477 29.8903 133.235 30.1751 132.921 30.4121C132.611 30.6445 132.237 30.8245 131.8 30.9521C131.367 31.0752 130.884 31.1367 130.351 31.1367C129.872 31.1367 129.4 31.0729 128.936 30.9453C128.475 30.8177 128.056 30.624 127.678 30.3643C127.299 30.0999 126.999 29.7718 126.775 29.3799C126.552 28.9834 126.44 28.5208 126.44 27.9922H128.156C128.156 28.3158 128.211 28.5915 128.32 28.8193C128.434 29.0472 128.591 29.234 128.792 29.3799C128.993 29.5212 129.225 29.626 129.489 29.6943C129.758 29.7627 130.045 29.7969 130.351 29.7969C130.752 29.7969 131.087 29.7399 131.355 29.626C131.629 29.512 131.834 29.3525 131.971 29.1475C132.107 28.9424 132.176 28.7054 132.176 28.4365Z" fill="white"/>
<path fill-rule="evenodd" clip-rule="evenodd" d="M39.6546 32.16C40.2132 31.26 40.4215 30.8 40.8475 29.79C37.7044 28.53 37.2026 23.8 40.3079 21.99C39.3612 20.73 38.0262 20 36.7671 20C35.8582 20 35.2333 20.25 34.6748 20.48C34.2014 20.67 33.7754 20.84 33.2452 20.84C32.6771 20.84 32.1754 20.65 31.6452 20.45C31.0677 20.23 30.4617 20 29.7043 20C28.2937 20 26.7884 20.91 25.8322 22.47C24.4878 24.67 24.7245 28.79 26.8925 32.31C27.6689 33.57 28.7103 34.98 30.0641 35C30.6322 35.01 31.0014 34.83 31.4085 34.64C31.8724 34.42 32.3742 34.18 33.2546 34.18C34.1351 34.17 34.6274 34.42 35.0913 34.64C35.489 34.83 35.8487 35.01 36.4073 35C37.7801 34.98 38.8783 33.42 39.6546 32.16Z" fill="white"/>
<path fill-rule="evenodd" clip-rule="evenodd" d="M36.5681 15C36.7195 16.1 36.2935 17.19 35.7349 17.95C35.1385 18.77 34.0971 19.41 33.0935 19.37C32.9136 18.31 33.3775 17.22 33.9456 16.49C34.5799 15.69 35.6497 15.07 36.5681 15Z" fill="white"/>
</svg>
