<svg width="160" height="50" viewBox="0 0 160 50" fill="none" xmlns="http://www.w3.org/2000/svg">
<rect width="160" height="50" fill="#C8B47E"/>
<path d="M42.6245 30H40.6504L40.6631 28.7368H42.6245C43.1958 28.7368 43.674 28.612 44.0591 28.3623C44.4484 28.1126 44.7404 27.755 44.9351 27.2896C45.134 26.8241 45.2334 26.2697 45.2334 25.6265V25.125C45.2334 24.6257 45.1763 24.1834 45.062 23.7983C44.952 23.4132 44.7869 23.0895 44.5669 22.8271C44.3511 22.5648 44.0845 22.3659 43.7671 22.2305C43.4539 22.0951 43.0921 22.0273 42.6816 22.0273H40.6123V20.7578H42.6816C43.2952 20.7578 43.856 20.8615 44.3638 21.0688C44.8716 21.272 45.3096 21.5661 45.6777 21.9512C46.0501 22.3363 46.3358 22.7975 46.5347 23.335C46.7336 23.8724 46.833 24.4733 46.833 25.1377V25.6265C46.833 26.2909 46.7336 26.8918 46.5347 27.4292C46.3358 27.9666 46.0501 28.4279 45.6777 28.813C45.3053 29.1938 44.861 29.488 44.3447 29.6953C43.8327 29.8984 43.2593 30 42.6245 30ZM41.5327 20.7578V30H39.9395V20.7578H41.5327ZM47.9883 26.6421V26.4961C47.9883 26.001 48.0602 25.5418 48.2041 25.1187C48.348 24.6912 48.5553 24.321 48.8262 24.0078C49.1012 23.6904 49.4355 23.445 49.8291 23.2715C50.2269 23.0938 50.6755 23.0049 51.1748 23.0049C51.6784 23.0049 52.127 23.0938 52.5205 23.2715C52.9183 23.445 53.2547 23.6904 53.5298 24.0078C53.8049 24.321 54.0143 24.6912 54.1582 25.1187C54.3021 25.5418 54.374 26.001 54.374 26.4961V26.6421C54.374 27.1372 54.3021 27.5964 54.1582 28.0195C54.0143 28.4427 53.8049 28.813 53.5298 29.1304C53.2547 29.4435 52.9204 29.689 52.5269 29.8667C52.1333 30.0402 51.6868 30.127 51.1875 30.127C50.6839 30.127 50.2332 30.0402 49.8354 29.8667C49.4419 29.689 49.1076 29.4435 48.8325 29.1304C48.5575 28.813 48.348 28.4427 48.2041 28.0195C48.0602 27.5964 47.9883 27.1372 47.9883 26.6421ZM49.5181 26.4961V26.6421C49.5181 26.951 49.5498 27.243 49.6133 27.5181C49.6768 27.7931 49.7762 28.0343 49.9116 28.2417C50.047 28.4491 50.2205 28.612 50.4321 28.7305C50.6437 28.849 50.8955 28.9082 51.1875 28.9082C51.471 28.9082 51.7165 28.849 51.9238 28.7305C52.1354 28.612 52.3089 28.4491 52.4443 28.2417C52.5798 28.0343 52.6792 27.7931 52.7427 27.5181C52.8104 27.243 52.8442 26.951 52.8442 26.6421V26.4961C52.8442 26.1914 52.8104 25.9036 52.7427 25.6328C52.6792 25.3577 52.5776 25.1144 52.438 24.9028C52.3026 24.6912 52.1291 24.5262 51.9175 24.4077C51.7101 24.285 51.4626 24.2236 51.1748 24.2236C50.887 24.2236 50.6374 24.285 50.4258 24.4077C50.2184 24.5262 50.047 24.6912 49.9116 24.9028C49.7762 25.1144 49.6768 25.3577 49.6133 25.6328C49.5498 25.9036 49.5181 26.1914 49.5181 26.4961ZM57.5225 28.4766L59.1094 23.1318H60.0869L59.8203 24.7314L58.2207 30H57.3447L57.5225 28.4766ZM56.5894 23.1318L57.8271 28.502L57.9287 30H56.9512L55.0913 23.1318H56.5894ZM61.5723 28.4385L62.772 23.1318H64.2637L62.4102 30H61.4326L61.5723 28.4385ZM60.252 23.1318L61.8198 28.4131L62.0166 30H61.1406L59.522 24.7251L59.2554 23.1318H60.252ZM66.8218 24.5981V30H65.292V23.1318H66.7329L66.8218 24.5981ZM66.5488 26.312L66.0537 26.3057C66.0579 25.819 66.1257 25.3726 66.2568 24.9663C66.3923 24.5601 66.5785 24.2109 66.8154 23.9189C67.0566 23.627 67.3444 23.4027 67.6787 23.2461C68.013 23.0853 68.3854 23.0049 68.7959 23.0049C69.126 23.0049 69.4243 23.0514 69.6909 23.1445C69.9618 23.2334 70.1924 23.3794 70.3828 23.5825C70.5775 23.7856 70.7256 24.0501 70.8271 24.376C70.9287 24.6976 70.9795 25.0933 70.9795 25.563V30H69.4434V25.5566C69.4434 25.2266 69.3947 24.9663 69.2974 24.7759C69.2043 24.5812 69.0667 24.4437 68.8848 24.3633C68.707 24.2786 68.4849 24.2363 68.2183 24.2363C67.9559 24.2363 67.721 24.2913 67.5137 24.4014C67.3063 24.5114 67.1307 24.6616 66.9868 24.8521C66.8472 25.0425 66.7393 25.2625 66.6631 25.5122C66.5869 25.7619 66.5488 26.0285 66.5488 26.312ZM74.1787 20.25V30H72.6426V20.25H74.1787ZM75.5625 26.6421V26.4961C75.5625 26.001 75.6344 25.5418 75.7783 25.1187C75.9222 24.6912 76.1296 24.321 76.4004 24.0078C76.6755 23.6904 77.0098 23.445 77.4033 23.2715C77.8011 23.0938 78.2497 23.0049 78.749 23.0049C79.2526 23.0049 79.7012 23.0938 80.0947 23.2715C80.4925 23.445 80.8289 23.6904 81.104 24.0078C81.3791 24.321 81.5885 24.6912 81.7324 25.1187C81.8763 25.5418 81.9482 26.001 81.9482 26.4961V26.6421C81.9482 27.1372 81.8763 27.5964 81.7324 28.0195C81.5885 28.4427 81.3791 28.813 81.104 29.1304C80.8289 29.4435 80.4946 29.689 80.1011 29.8667C79.7075 30.0402 79.2611 30.127 78.7617 30.127C78.2581 30.127 77.8075 30.0402 77.4097 29.8667C77.0161 29.689 76.6818 29.4435 76.4067 29.1304C76.1317 28.813 75.9222 28.4427 75.7783 28.0195C75.6344 27.5964 75.5625 27.1372 75.5625 26.6421ZM77.0923 26.4961V26.6421C77.0923 26.951 77.124 27.243 77.1875 27.5181C77.251 27.7931 77.3504 28.0343 77.4858 28.2417C77.6213 28.4491 77.7948 28.612 78.0063 28.7305C78.2179 28.849 78.4697 28.9082 78.7617 28.9082C79.0452 28.9082 79.2907 28.849 79.498 28.7305C79.7096 28.612 79.8831 28.4491 80.0186 28.2417C80.154 28.0343 80.2534 27.7931 80.3169 27.5181C80.3846 27.243 80.4185 26.951 80.4185 26.6421V26.4961C80.4185 26.1914 80.3846 25.9036 80.3169 25.6328C80.2534 25.3577 80.1519 25.1144 80.0122 24.9028C79.8768 24.6912 79.7033 24.5262 79.4917 24.4077C79.2843 24.285 79.0368 24.2236 78.749 24.2236C78.4613 24.2236 78.2116 24.285 78 24.4077C77.7926 24.5262 77.6213 24.6912 77.4858 24.9028C77.3504 25.1144 77.251 25.3577 77.1875 25.6328C77.124 25.9036 77.0923 26.1914 77.0923 26.4961ZM87.1025 28.6226V25.3472C87.1025 25.1017 87.0581 24.8901 86.9692 24.7124C86.8804 24.5347 86.745 24.3971 86.563 24.2998C86.3853 24.2025 86.161 24.1538 85.8901 24.1538C85.6405 24.1538 85.4246 24.1961 85.2427 24.2808C85.0607 24.3654 84.9189 24.4797 84.8174 24.6235C84.7158 24.7674 84.665 24.9303 84.665 25.1123H83.1416C83.1416 24.8415 83.2072 24.5791 83.3384 24.3252C83.4696 24.0713 83.66 23.8449 83.9097 23.646C84.1593 23.4471 84.4577 23.2905 84.8047 23.1763C85.1517 23.062 85.541 23.0049 85.9727 23.0049C86.4889 23.0049 86.946 23.0916 87.3438 23.2651C87.7458 23.4386 88.061 23.701 88.2896 24.0522C88.5223 24.3993 88.6387 24.8351 88.6387 25.3599V28.4131C88.6387 28.7262 88.6598 29.0076 88.7021 29.2573C88.7487 29.5028 88.8143 29.7165 88.8989 29.8984V30H87.3311C87.2591 29.835 87.202 29.6255 87.1597 29.3716C87.1216 29.1134 87.1025 28.8638 87.1025 28.6226ZM87.3247 25.8232L87.3374 26.769H86.2393C85.9557 26.769 85.7061 26.7965 85.4902 26.8516C85.2744 26.9023 85.0946 26.9785 84.9507 27.0801C84.8068 27.1816 84.6989 27.3044 84.627 27.4482C84.555 27.5921 84.519 27.755 84.519 27.937C84.519 28.119 84.5614 28.2861 84.646 28.4385C84.7306 28.5866 84.8534 28.703 85.0142 28.7876C85.1792 28.8722 85.3781 28.9146 85.6108 28.9146C85.924 28.9146 86.1969 28.8511 86.4297 28.7241C86.6667 28.5929 86.8529 28.4342 86.9883 28.248C87.1237 28.0576 87.1956 27.8778 87.2041 27.7085L87.6992 28.3877C87.6484 28.5612 87.5617 28.7474 87.439 28.9463C87.3162 29.1452 87.1554 29.3356 86.9565 29.5176C86.7619 29.6953 86.527 29.8413 86.252 29.9556C85.9811 30.0698 85.668 30.127 85.3125 30.127C84.8639 30.127 84.464 30.0381 84.1128 29.8604C83.7616 29.6784 83.4865 29.4351 83.2876 29.1304C83.0887 28.8215 82.9893 28.4723 82.9893 28.083C82.9893 27.7191 83.057 27.3975 83.1924 27.1182C83.332 26.8346 83.5352 26.5977 83.8018 26.4072C84.0726 26.2168 84.4027 26.0729 84.792 25.9756C85.1813 25.874 85.6257 25.8232 86.125 25.8232H87.3247ZM94.4277 28.5781V20.25H95.9639V30H94.5737L94.4277 28.5781ZM89.959 26.6421V26.5088C89.959 25.9883 90.0203 25.5143 90.1431 25.0869C90.2658 24.6553 90.4435 24.285 90.6763 23.9761C90.909 23.6629 91.1925 23.4238 91.5269 23.2588C91.8612 23.0895 92.2378 23.0049 92.6567 23.0049C93.0715 23.0049 93.4354 23.0853 93.7485 23.2461C94.0617 23.4069 94.3283 23.6375 94.5483 23.938C94.7684 24.2342 94.944 24.5897 95.0752 25.0044C95.2064 25.4149 95.2995 25.8719 95.3545 26.3755V26.8008C95.2995 27.2917 95.2064 27.7402 95.0752 28.1465C94.944 28.5527 94.7684 28.904 94.5483 29.2002C94.3283 29.4964 94.0596 29.7249 93.7422 29.8857C93.429 30.0465 93.063 30.127 92.644 30.127C92.2293 30.127 91.8548 30.0402 91.5205 29.8667C91.1904 29.6932 90.909 29.4499 90.6763 29.1367C90.4435 28.8236 90.2658 28.4554 90.1431 28.0322C90.0203 27.6048 89.959 27.1414 89.959 26.6421ZM91.4888 26.5088V26.6421C91.4888 26.9552 91.5163 27.2472 91.5713 27.5181C91.6305 27.7889 91.7215 28.028 91.8442 28.2354C91.967 28.4385 92.1257 28.5993 92.3203 28.7178C92.5192 28.832 92.7562 28.8892 93.0312 28.8892C93.3783 28.8892 93.6639 28.813 93.8882 28.6606C94.1125 28.5083 94.2881 28.3031 94.415 28.0449C94.5462 27.7826 94.6351 27.4906 94.6816 27.1689V26.02C94.6562 25.7703 94.6034 25.5376 94.5229 25.3218C94.4468 25.106 94.3431 24.9176 94.2119 24.7568C94.0807 24.5918 93.9178 24.4648 93.7231 24.376C93.5327 24.2829 93.3063 24.2363 93.0439 24.2363C92.7646 24.2363 92.5277 24.2956 92.333 24.4141C92.1383 24.5326 91.9775 24.6955 91.8506 24.9028C91.7279 25.1102 91.6369 25.3514 91.5776 25.6265C91.5184 25.9015 91.4888 26.1956 91.4888 26.5088ZM104.552 21.9893L101.791 30H100.122L103.6 20.7578H104.667L104.552 21.9893ZM106.863 30L104.095 21.9893L103.975 20.7578H105.047L108.539 30H106.863ZM106.729 26.5723V27.8354H101.702V26.5723H106.729ZM110.824 24.5981V30H109.294V23.1318H110.735L110.824 24.5981ZM110.551 26.312L110.056 26.3057C110.06 25.819 110.128 25.3726 110.259 24.9663C110.394 24.5601 110.58 24.2109 110.817 23.9189C111.059 23.627 111.346 23.4027 111.681 23.2461C112.015 23.0853 112.387 23.0049 112.798 23.0049C113.128 23.0049 113.426 23.0514 113.693 23.1445C113.964 23.2334 114.194 23.3794 114.385 23.5825C114.579 23.7856 114.728 24.0501 114.829 24.376C114.931 24.6976 114.981 25.0933 114.981 25.563V30H113.445V25.5566C113.445 25.2266 113.397 24.9663 113.299 24.7759C113.206 24.5812 113.069 24.4437 112.887 24.3633C112.709 24.2786 112.487 24.2363 112.22 24.2363C111.958 24.2363 111.723 24.2913 111.516 24.4014C111.308 24.5114 111.133 24.6616 110.989 24.8521C110.849 25.0425 110.741 25.2625 110.665 25.5122C110.589 25.7619 110.551 26.0285 110.551 26.312ZM120.732 28.5781V20.25H122.269V30H120.878L120.732 28.5781ZM116.264 26.6421V26.5088C116.264 25.9883 116.325 25.5143 116.448 25.0869C116.57 24.6553 116.748 24.285 116.981 23.9761C117.214 23.6629 117.497 23.4238 117.832 23.2588C118.166 23.0895 118.542 23.0049 118.961 23.0049C119.376 23.0049 119.74 23.0853 120.053 23.2461C120.366 23.4069 120.633 23.6375 120.853 23.938C121.073 24.2342 121.249 24.5897 121.38 25.0044C121.511 25.4149 121.604 25.8719 121.659 26.3755V26.8008C121.604 27.2917 121.511 27.7402 121.38 28.1465C121.249 28.5527 121.073 28.904 120.853 29.2002C120.633 29.4964 120.364 29.7249 120.047 29.8857C119.734 30.0465 119.368 30.127 118.949 30.127C118.534 30.127 118.16 30.0402 117.825 29.8667C117.495 29.6932 117.214 29.4499 116.981 29.1367C116.748 28.8236 116.57 28.4554 116.448 28.0322C116.325 27.6048 116.264 27.1414 116.264 26.6421ZM117.793 26.5088V26.6421C117.793 26.9552 117.821 27.2472 117.876 27.5181C117.935 27.7889 118.026 28.028 118.149 28.2354C118.272 28.4385 118.43 28.5993 118.625 28.7178C118.824 28.832 119.061 28.8892 119.336 28.8892C119.683 28.8892 119.969 28.813 120.193 28.6606C120.417 28.5083 120.593 28.3031 120.72 28.0449C120.851 27.7826 120.94 27.4906 120.986 27.1689V26.02C120.961 25.7703 120.908 25.5376 120.828 25.3218C120.751 25.106 120.648 24.9176 120.517 24.7568C120.385 24.5918 120.222 24.4648 120.028 24.376C119.837 24.2829 119.611 24.2363 119.349 24.2363C119.069 24.2363 118.832 24.2956 118.638 24.4141C118.443 24.5326 118.282 24.6955 118.155 24.9028C118.033 25.1102 117.942 25.3514 117.882 25.6265C117.823 25.9015 117.793 26.1956 117.793 26.5088ZM125.404 24.4395V30H123.875V23.1318H125.334L125.404 24.4395ZM127.505 23.0874L127.493 24.5093C127.4 24.4924 127.298 24.4797 127.188 24.4712C127.082 24.4627 126.976 24.4585 126.871 24.4585C126.608 24.4585 126.378 24.4966 126.179 24.5728C125.98 24.6447 125.813 24.7505 125.677 24.8901C125.546 25.0256 125.444 25.1906 125.373 25.3853C125.301 25.5799 125.258 25.7979 125.246 26.0391L124.896 26.0645C124.896 25.6328 124.939 25.2329 125.023 24.8647C125.108 24.4966 125.235 24.1729 125.404 23.8936C125.578 23.6143 125.794 23.3963 126.052 23.2397C126.314 23.0832 126.617 23.0049 126.959 23.0049C127.053 23.0049 127.152 23.0133 127.258 23.0303C127.368 23.0472 127.45 23.0662 127.505 23.0874ZM128.007 26.6421V26.4961C128.007 26.001 128.079 25.5418 128.223 25.1187C128.367 24.6912 128.574 24.321 128.845 24.0078C129.12 23.6904 129.454 23.445 129.848 23.2715C130.245 23.0938 130.694 23.0049 131.193 23.0049C131.697 23.0049 132.146 23.0938 132.539 23.2715C132.937 23.445 133.273 23.6904 133.548 24.0078C133.823 24.321 134.033 24.6912 134.177 25.1187C134.321 25.5418 134.393 26.001 134.393 26.4961V26.6421C134.393 27.1372 134.321 27.5964 134.177 28.0195C134.033 28.4427 133.823 28.813 133.548 29.1304C133.273 29.4435 132.939 29.689 132.545 29.8667C132.152 30.0402 131.705 30.127 131.206 30.127C130.702 30.127 130.252 30.0402 129.854 29.8667C129.46 29.689 129.126 29.4435 128.851 29.1304C128.576 28.813 128.367 28.4427 128.223 28.0195C128.079 27.5964 128.007 27.1372 128.007 26.6421ZM129.537 26.4961V26.6421C129.537 26.951 129.568 27.243 129.632 27.5181C129.695 27.7931 129.795 28.0343 129.93 28.2417C130.066 28.4491 130.239 28.612 130.451 28.7305C130.662 28.849 130.914 28.9082 131.206 28.9082C131.49 28.9082 131.735 28.849 131.942 28.7305C132.154 28.612 132.327 28.4491 132.463 28.2417C132.598 28.0343 132.698 27.7931 132.761 27.5181C132.829 27.243 132.863 26.951 132.863 26.6421V26.4961C132.863 26.1914 132.829 25.9036 132.761 25.6328C132.698 25.3577 132.596 25.1144 132.457 24.9028C132.321 24.6912 132.148 24.5262 131.936 24.4077C131.729 24.285 131.481 24.2236 131.193 24.2236C130.906 24.2236 130.656 24.285 130.444 24.4077C130.237 24.5262 130.066 24.6912 129.93 24.9028C129.795 25.1144 129.695 25.3577 129.632 25.6328C129.568 25.9036 129.537 26.1914 129.537 26.4961ZM137.312 23.1318V30H135.776V23.1318H137.312ZM135.675 21.3291C135.675 21.0964 135.751 20.9038 135.903 20.7515C136.06 20.5949 136.276 20.5166 136.551 20.5166C136.822 20.5166 137.035 20.5949 137.192 20.7515C137.348 20.9038 137.427 21.0964 137.427 21.3291C137.427 21.5576 137.348 21.748 137.192 21.9004C137.035 22.0527 136.822 22.1289 136.551 22.1289C136.276 22.1289 136.06 22.0527 135.903 21.9004C135.751 21.748 135.675 21.5576 135.675 21.3291ZM143.178 28.5781V20.25H144.714V30H143.324L143.178 28.5781ZM138.709 26.6421V26.5088C138.709 25.9883 138.77 25.5143 138.893 25.0869C139.016 24.6553 139.194 24.285 139.426 23.9761C139.659 23.6629 139.943 23.4238 140.277 23.2588C140.611 23.0895 140.988 23.0049 141.407 23.0049C141.821 23.0049 142.185 23.0853 142.499 23.2461C142.812 23.4069 143.078 23.6375 143.298 23.938C143.518 24.2342 143.694 24.5897 143.825 25.0044C143.956 25.4149 144.049 25.8719 144.104 26.3755V26.8008C144.049 27.2917 143.956 27.7402 143.825 28.1465C143.694 28.5527 143.518 28.904 143.298 29.2002C143.078 29.4964 142.81 29.7249 142.492 29.8857C142.179 30.0465 141.813 30.127 141.394 30.127C140.979 30.127 140.605 30.0402 140.271 29.8667C139.94 29.6932 139.659 29.4499 139.426 29.1367C139.194 28.8236 139.016 28.4554 138.893 28.0322C138.77 27.6048 138.709 27.1414 138.709 26.6421ZM140.239 26.5088V26.6421C140.239 26.9552 140.266 27.2472 140.321 27.5181C140.381 27.7889 140.472 28.028 140.594 28.2354C140.717 28.4385 140.876 28.5993 141.07 28.7178C141.269 28.832 141.506 28.8892 141.781 28.8892C142.128 28.8892 142.414 28.813 142.638 28.6606C142.862 28.5083 143.038 28.3031 143.165 28.0449C143.296 27.7826 143.385 27.4906 143.432 27.1689V26.02C143.406 25.7703 143.353 25.5376 143.273 25.3218C143.197 25.106 143.093 24.9176 142.962 24.7568C142.831 24.5918 142.668 24.4648 142.473 24.376C142.283 24.2829 142.056 24.2363 141.794 24.2363C141.515 24.2363 141.278 24.2956 141.083 24.4141C140.888 24.5326 140.728 24.6955 140.601 24.9028C140.478 25.1102 140.387 25.3514 140.328 25.6265C140.268 25.9015 140.239 26.1956 140.239 26.5088Z" fill="white"/>
<path d="M23 31V34C23 34.55 22.55 35 22 35C21.45 35 21 34.55 21 34V31H23Z" fill="white"/>
<path d="M27 31V34C27 34.55 26.55 35 26 35C25.45 35 25 34.55 25 34V31H27Z" fill="white"/>
<path d="M29 24V29C29 30.1 28.1 31 27 31H21C19.9 31 19 30.1 19 29V24C19 22.9 19.9 22 21 22H27C28.1 22 29 22.9 29 24Z" fill="white"/>
<path d="M17 24V28C17 28.55 16.55 29 16 29C15.45 29 15 28.55 15 28V24C15 23.45 15.45 23 16 23C16.55 23 17 23.45 17 24Z" fill="white"/>
<path d="M33 24V28C33 28.55 32.55 29 32 29C31.45 29 31 28.55 31 28V24C31 23.45 31.45 23 32 23C32.55 23 33 23.45 33 24Z" fill="white"/>
<path d="M21.6 20.6H26.4C27.28 20.6 28 19.88 28 19C28 16.79 26.21 15 24 15C21.79 15 20 16.79 20 19C20 19.88 20.72 20.6 21.6 20.6Z" fill="white"/>
</svg>
